<svg id="Layer_2" data-name="Layer 2" xmlns="http://www.w3.org/2000/svg" xmlns:xlink="http://www.w3.org/1999/xlink" viewBox="0 0 1920 600"><defs><style>.cls-1{fill:url(#linear-gradient);}.cls-2{mask:url(#mask);}.cls-3,.cls-4{fill:none;stroke:#000;stroke-width:15.44px;}.cls-3,.cls-4,.cls-5,.cls-6,.cls-7,.cls-8,.cls-9{stroke-miterlimit:10;}.cls-4{stroke-linecap:round;}.cls-5,.cls-6,.cls-7,.cls-8,.cls-9{stroke-width:15px;}.cls-5{fill:url(#linear-gradient-2);stroke:url(#linear-gradient-3);}.cls-6{fill:url(#linear-gradient-4);stroke:url(#linear-gradient-5);}.cls-7{fill:url(#linear-gradient-6);stroke:url(#linear-gradient-7);}.cls-8{fill:url(#linear-gradient-8);stroke:url(#linear-gradient-9);}.cls-9{fill:url(#linear-gradient-10);stroke:url(#linear-gradient-11);}.cls-10{font-size:161.65px;fill:#0d0d0d;font-family:CocogoosePro-Thin, Cocogoose Pro;font-weight:200;letter-spacing:0.01em;}.cls-11{letter-spacing:0.04em;}</style><linearGradient id="linear-gradient" x1="618.72" y1="493.71" x2="-53.19" y2="105.78" gradientUnits="userSpaceOnUse"><stop offset="0.01" stop-color="#f2f2f2"/><stop offset="0.42" stop-color="#e5e5e5"/><stop offset="1" stop-color="#ccc"/></linearGradient><mask id="mask" x="0.31" y="-2.11" width="564.9" height="603.71" maskUnits="userSpaceOnUse"><rect class="cls-1" x="0.31" y="-2.11" width="564.9" height="603.71" rx="20.8"/></mask><linearGradient id="linear-gradient-2" x1="556.28" y1="163.93" x2="818.23" y2="264.48" gradientUnits="userSpaceOnUse"><stop offset="0" stop-color="#3b3c40"/><stop offset="0.03" stop-color="#37383c"/><stop offset="0.2" stop-color="#242527"/><stop offset="0.4" stop-color="#171718"/><stop offset="0.63" stop-color="#0f0f10"/><stop offset="1" stop-color="#0d0d0d"/></linearGradient><linearGradient id="linear-gradient-3" x1="551.57" y1="152.29" x2="825.61" y2="274.3" xlink:href="#linear-gradient-2"/><linearGradient id="linear-gradient-4" x1="849" y1="148" x2="1007.59" y2="208.87" xlink:href="#linear-gradient-2"/><linearGradient id="linear-gradient-5" x1="840.56" y1="138.02" x2="1007.51" y2="212.35" xlink:href="#linear-gradient-2"/><linearGradient id="linear-gradient-6" x1="1105.29" y1="127.43" x2="1369.83" y2="228.98" xlink:href="#linear-gradient-2"/><linearGradient id="linear-gradient-7" x1="1102.33" y1="117.07" x2="1377.66" y2="239.65" xlink:href="#linear-gradient-2"/><linearGradient id="linear-gradient-8" x1="1389.32" y1="149.93" x2="1584.3" y2="224.77" xlink:href="#linear-gradient-2"/><linearGradient id="linear-gradient-9" x1="1382.24" y1="141.16" x2="1590.77" y2="234.01" xlink:href="#linear-gradient-2"/><linearGradient id="linear-gradient-10" x1="1593.78" y1="175.18" x2="1857.23" y2="276.31" xlink:href="#linear-gradient-2"/><linearGradient id="linear-gradient-11" x1="1584.57" y1="163.11" x2="1858.94" y2="285.26" xlink:href="#linear-gradient-2"/></defs><g class="cls-2"><rect class="cls-3" x="277.97" y="90.74" width="228.08" height="234.17" rx="16.02"/><path class="cls-4" d="M215.39,117,241,90.74H58.61C50.5,90.74,43.93,98,43.93,107v201.7l119,132.41"/><path class="cls-4" d="M505.59,392.08V550.82c0,7-7.08,12.72-15.81,12.72H47.45"/><line class="cls-4" x1="501.93" y1="93.01" x2="533.24" y2="60.86"/><ellipse class="cls-4" cx="543.05" cy="47.55" rx="12.33" ry="12.66"/><ellipse class="cls-4" cx="505.73" cy="374.87" rx="12.33" ry="12.66"/><ellipse class="cls-4" cx="31.95" cy="561.92" rx="12.33" ry="12.66"/></g><path class="cls-5" d="M751.19,289.88a30.6,30.6,0,0,0,.95-8.09c0-3.11.12-6,.38-8.66A155.18,155.18,0,0,1,738,286.65a97.45,97.45,0,0,1-16.65,10.94,89.15,89.15,0,0,1-19.42,7.33,91.61,91.61,0,0,1-22.66,2.67,127,127,0,0,1-32.84-4.19,120.19,120.19,0,0,1-29.23-12,118.08,118.08,0,0,1-24.55-18.85,119.48,119.48,0,0,1-31.13-53.88,125.9,125.9,0,0,1-4.29-33.13,127.26,127.26,0,0,1,4.29-33.12,124.06,124.06,0,0,1,12.18-29.8,126.78,126.78,0,0,1,19-25.23,119.15,119.15,0,0,1,24.55-19.51,122,122,0,0,1,29.23-12.57,119.4,119.4,0,0,1,32.84-4.47,98.67,98.67,0,0,1,22.94,2.57,92,92,0,0,1,20.18,7.33A103.58,103.58,0,0,1,740,82a122.7,122.7,0,0,1,15,14.09q.76-5.14,1.43-10.09c.44-3.3.86-6.66,1.24-10.09A21.45,21.45,0,0,1,761,67.61q2.19-3,8.28-3,6.29,0,12.47.09t12.47.1a11.12,11.12,0,0,1,7.71,3,10.35,10.35,0,0,1,3.34,8V270.08q0,31.23-10.09,54.17t-27.42,38.08a113.59,113.59,0,0,1-40.27,22.56,157,157,0,0,1-48.64,7.42A133,133,0,0,1,657,390.5a153.25,153.25,0,0,1-21.42-5.14,132.74,132.74,0,0,1-20-8.18,107.24,107.24,0,0,1-17.32-10.95,14.66,14.66,0,0,1-4.1-3.71,8.89,8.89,0,0,1-1.61-5.43A13.33,13.33,0,0,1,593,354a10.61,10.61,0,0,1,1.9-3.71l14.28-20.76a22.28,22.28,0,0,1,3.81-3.71,6.31,6.31,0,0,1,3.8-1.24,24.44,24.44,0,0,1,3.53.76,11.87,11.87,0,0,1,4.09,2.29,39.91,39.91,0,0,0,11.33,6.76,101.76,101.76,0,0,0,14.09,4.57,108.5,108.5,0,0,0,14.66,2.57,129.74,129.74,0,0,0,13,.76,99.06,99.06,0,0,0,26.94-3.62,76.84,76.84,0,0,0,22.84-10.47,59.87,59.87,0,0,0,16.38-16.56A47.18,47.18,0,0,0,751.19,289.88ZM610.68,185.55A78.5,78.5,0,0,0,616,214.4a75,75,0,0,0,14.85,23.89,71.46,71.46,0,0,0,22.37,16.28,65.71,65.71,0,0,0,28.08,6,69.17,69.17,0,0,0,28.37-5.9,75.23,75.23,0,0,0,23.23-15.89,76.08,76.08,0,0,0,15.71-23.33,74.55,74.55,0,0,0,6.18-28.17v-3.05A74.64,74.64,0,0,0,748.62,156a77.34,77.34,0,0,0-15.71-23.42,74.66,74.66,0,0,0-23.23-16,69.33,69.33,0,0,0-28.37-5.9,65.56,65.56,0,0,0-28.08,6A71.3,71.3,0,0,0,630.86,133,75,75,0,0,0,616,156.9,78,78,0,0,0,610.68,185.55Z"/><path class="cls-6" d="M877.41,76.46q0-5.52,3.72-8.38a13.12,13.12,0,0,1,8.13-2.85h24.26q4.77,0,7.26,2.85a19.88,19.88,0,0,1,3.82,7,48.31,48.31,0,0,1,1.91,9q.57,4.86,1.34,8.85a111.72,111.72,0,0,1,9.44-11.51,64.5,64.5,0,0,1,11.9-10,60.72,60.72,0,0,1,15-7,62.53,62.53,0,0,1,19-2.67A108.1,108.1,0,0,1,1000.4,63a76.09,76.09,0,0,1,28.18,10.47q6.66,4.09,14.27,9.61a27.9,27.9,0,0,1,5.62,4.76,9.14,9.14,0,0,1,2.38,6.29c-.13,1-.32,2.09-.57,3.23a10.24,10.24,0,0,1-1.52,3.43l-15.61,24.75a9.63,9.63,0,0,1-7.05,3.62,12.33,12.33,0,0,1-5.9-1.53q-6.29-3.42-11.42-6.47A97.51,97.51,0,0,0,998.69,116a59,59,0,0,0-10.19-3.43,51.31,51.31,0,0,0-11.71-1.24q-16.95,0-28.65,10.85T932.43,152V295.59q0,11.43-11.84,11.43H889.26q-11.85,0-11.85-11.43Z"/><path class="cls-7" d="M1343.28,295.79a9.56,9.56,0,0,1-5.14,9,16.07,16.07,0,0,1-5.24,1.71,38.51,38.51,0,0,1-6.18.48h-23.8q-6.11,0-8.47-3.24a21.93,21.93,0,0,1-3.53-8.19l-1.14-16.18A117.91,117.91,0,0,1,1275,291.88,104.37,104.37,0,0,1,1257.61,302a101.1,101.1,0,0,1-19.8,6.67,97.29,97.29,0,0,1-21.52,2.38,121.47,121.47,0,0,1-33-4.48,127.86,127.86,0,0,1-29.8-12.56,121.51,121.51,0,0,1-25.22-19.52,125.1,125.1,0,0,1-19.42-25.32,127.3,127.3,0,0,1-12.57-29.89,126.38,126.38,0,0,1,0-66.63,127.12,127.12,0,0,1,12.57-29.89,123.45,123.45,0,0,1,44.64-44.65,128.31,128.31,0,0,1,29.8-12.57,121.46,121.46,0,0,1,33-4.47,102.41,102.41,0,0,1,23.23,2.57,98,98,0,0,1,20.66,7.24A94,94,0,0,1,1278,82.08a111,111,0,0,1,14.85,14.37l2.66-20.37c.64-2.28,1.24-4.16,1.81-5.62a11,11,0,0,1,2.1-3.52,6.3,6.3,0,0,1,3.14-1.81,20.36,20.36,0,0,1,4.76-.47h19a33.14,33.14,0,0,1,6.1.57A20.69,20.69,0,0,1,1338,67a9.24,9.24,0,0,1,5.33,8.85Zm-198-109.86a78.29,78.29,0,0,0,5.33,28.85,75,75,0,0,0,14.85,23.89A71.23,71.23,0,0,0,1187.83,255a65.56,65.56,0,0,0,28.08,6,69.82,69.82,0,0,0,28.84-6,74,74,0,0,0,23.33-16.28,77.31,77.31,0,0,0,15.61-23.89,75.23,75.23,0,0,0,0-57.5,77.31,77.31,0,0,0-15.61-23.89A75.22,75.22,0,0,0,1244.75,117a68.94,68.94,0,0,0-28.84-6.09,64.75,64.75,0,0,0-28.08,6.09,72.47,72.47,0,0,0-22.37,16.38,75,75,0,0,0-14.85,23.89A77.78,77.78,0,0,0,1145.28,185.93Z"/><path class="cls-8" d="M1434.09,238.86a40.64,40.64,0,0,0,10.09,10.85,68.35,68.35,0,0,0,12.47,7.52,62.35,62.35,0,0,0,12.18,4.29,43.6,43.6,0,0,0,9.24,1.33,82.17,82.17,0,0,0,12.56-1.14,51.52,51.52,0,0,0,13.61-4.1,32.57,32.57,0,0,0,10.86-8q4.47-5,4.47-12.85,0-7.62-3.52-12.38a27.39,27.39,0,0,0-9.52-7.9,68.37,68.37,0,0,0-13.71-5.24q-7.71-2.08-16.28-4.56-20-5.34-34.08-12.86a87.44,87.44,0,0,1-23.13-17.23,61.94,61.94,0,0,1-13.23-21.32,74.15,74.15,0,0,1-4.19-25.32,63.26,63.26,0,0,1,23.23-50.07A80,80,0,0,1,1451.7,65.7a110.78,110.78,0,0,1,34.36-5,107.62,107.62,0,0,1,23.8,2.38,78.25,78.25,0,0,1,19.42,7.14,82,82,0,0,1,16.85,12,183.58,183.58,0,0,1,16.09,17,10.53,10.53,0,0,1,2.85,6.66q0,3.43-3.81,6.47-2.85,2.3-6.75,5.72t-7.71,6.66a78.52,78.52,0,0,1-7.24,5.52c-2.28,1.52-4.19,2.28-5.71,2.28-2.79,0-5.52-1.64-8.19-5a85.89,85.89,0,0,0-8.37-8.66,44.28,44.28,0,0,0-8.76-6.09,42,42,0,0,0-9.9-3.62,51.72,51.72,0,0,0-11.62-1.23,40.85,40.85,0,0,0-10.75,1.52A35.88,35.88,0,0,0,1466,114a29.74,29.74,0,0,0-7.81,7.33,15.87,15.87,0,0,0-3.14,9.61,14.87,14.87,0,0,0,3.9,10.38,35.35,35.35,0,0,0,9.88,7.42,72.24,72.24,0,0,0,13,5.24c4.69,1.4,9.06,2.66,13.12,3.81a244.48,244.48,0,0,1,32.12,11.42,98.36,98.36,0,0,1,25.19,15.71,66.15,66.15,0,0,1,16.44,21.7q5.9,12.47,5.89,29.22,0,17.72-7,31.7a69,69,0,0,1-19.45,23.71,89.24,89.24,0,0,1-29.44,14.85,127.62,127.62,0,0,1-37,5.14,119.92,119.92,0,0,1-24.37-2.57,103.42,103.42,0,0,1-23.7-8,91.12,91.12,0,0,1-20.94-13.9,75.31,75.31,0,0,1-16.09-20.08,17.09,17.09,0,0,1-2.85-8.57,7.41,7.41,0,0,1,1.23-4.28,17.54,17.54,0,0,1,3.33-3.53l21.33-16.37a10.25,10.25,0,0,1,5.14-1.71,7.08,7.08,0,0,1,4.76,1.81A38.73,38.73,0,0,1,1434.09,238.86Z"/><path class="cls-9" d="M1639.7,66.37a16.28,16.28,0,0,1,5-1.43,45.6,45.6,0,0,1,5-.28H1669c3.81,0,6.5,1.08,8.09,3.23a19.94,19.94,0,0,1,3.33,8.19l4,23.23a177.68,177.68,0,0,1,14.19-14.47,97.64,97.64,0,0,1,16.66-12.19,87.44,87.44,0,0,1,20.18-8.47A90.56,90.56,0,0,1,1760.22,61a120.14,120.14,0,0,1,33,4.47,123.7,123.7,0,0,1,29.32,12.57,120,120,0,0,1,24.65,19.42,123.24,123.24,0,0,1,19,25.23,126.57,126.57,0,0,1,12.18,29.89,128.9,128.9,0,0,1-12.18,96.52,125.47,125.47,0,0,1-19,25.32A118.14,118.14,0,0,1,1822.57,294a122.78,122.78,0,0,1-29.42,12.56,120.37,120.37,0,0,1-32.93,4.48,91.22,91.22,0,0,1-22.76-2.67,88.29,88.29,0,0,1-19.22-7.33,96.74,96.74,0,0,1-16.38-10.85,155.77,155.77,0,0,1-14.18-13.23v92.71a11.37,11.37,0,0,1-2.86,7.81c-1.9,2.16-4.76,3.24-8.56,3.24h-31.61a13.07,13.07,0,0,1-7.9-2.95,9.61,9.61,0,0,1-3.9-8.1V75.89a9.82,9.82,0,0,1,1.81-6.28A9.66,9.66,0,0,1,1639.7,66.37Zm188.67,119.56a77.57,77.57,0,0,0-20.27-52.45,70.52,70.52,0,0,0-22.37-16.18,65.77,65.77,0,0,0-28-6,68.66,68.66,0,0,0-28.27,5.9,77,77,0,0,0-23.23,15.9,77.9,77.9,0,0,0-16,23.32,70.18,70.18,0,0,0-6.19,28.18v1.33a73.44,73.44,0,0,0,5.81,28.94,77.29,77.29,0,0,0,15.8,24,76.3,76.3,0,0,0,23.42,16.37,68.36,68.36,0,0,0,28.65,6.1,64.81,64.81,0,0,0,28-6.1,71.06,71.06,0,0,0,22.37-16.37,78.54,78.54,0,0,0,20.27-52.93Z"/><text class="cls-10" transform="translate(576.42 549.84)">b<tspan class="cls-11" x="129.81" y="0">y rltn</tspan></text></svg>